<svg width="24" height="20" viewBox="0 0 24 20" fill="none" xmlns="http://www.w3.org/2000/svg">
<path fill-rule="evenodd" clip-rule="evenodd" d="M21.0517 5.19367C21.0813 5.3119 21.0961 5.50402 21.0961 5.77004C21.0961 7.89818 20.578 9.95242 19.5418 11.9328C18.4759 14.0314 16.9807 15.7014 15.0562 16.9428C12.9541 18.332 10.5411 19.0266 7.8172 19.0266C5.21174 19.0266 2.82834 18.332 0.666992 16.9428C0.992674 16.9723 1.36277 16.9871 1.77727 16.9871C3.93862 16.9871 5.87791 16.3221 7.59514 14.992C6.55888 14.992 5.64845 14.689 4.86385 14.0831C4.07925 13.4772 3.53892 12.716 3.24284 11.7998C3.53892 11.8293 3.82019 11.8441 4.08665 11.8441C4.50116 11.8441 4.91566 11.7998 5.33017 11.7111C4.2643 11.4746 3.37608 10.9278 2.6655 10.0707C1.95492 9.21349 1.59963 8.23809 1.59963 7.14446V7.05579C2.25099 7.44004 2.94677 7.64694 3.68695 7.6765C3.0652 7.23313 2.56187 6.67154 2.17697 5.99172C1.79208 5.3119 1.59963 4.56557 1.59963 3.75274C1.59963 2.93991 1.82168 2.16403 2.2658 1.42509C3.42049 2.87341 4.83424 4.02615 6.50706 4.88332C8.17989 5.74048 9.96374 6.2134 11.8586 6.30207C11.7994 5.94738 11.7698 5.59269 11.7698 5.23801C11.7698 4.4104 11.977 3.63451 12.3915 2.91035C12.8061 2.1862 13.3686 1.61721 14.0792 1.20341C14.7898 0.789605 15.5595 0.582703 16.3886 0.582703C17.0695 0.582703 17.6987 0.715711 18.276 0.981729C18.8534 1.24775 19.3641 1.60244 19.8082 2.0458C20.8741 1.8389 21.8659 1.46943 22.7838 0.937392C22.4285 2.03102 21.7475 2.88819 20.7409 3.50889C21.6291 3.39066 22.5173 3.13942 23.4055 2.75518C22.7542 3.70102 21.9696 4.51385 21.0517 5.19367Z" fill="white"/>
</svg>
